<?xml version="1.0" encoding="utf-8"?>
<!-- Generator: Adobe Illustrator 23.0.1, SVG Export Plug-In . SVG Version: 6.00 Build 0)  -->
<svg version="1.1" id="Layer_1" xmlns="http://www.w3.org/2000/svg" xmlns:xlink="http://www.w3.org/1999/xlink" x="0px" y="0px"
	 viewBox="0 0 412.2 104.6" style="enable-background:new 0 0 412.2 104.6;" xml:space="preserve">
<style type="text/css">
	.st0{fill:#FFFFFF;}
	.st1{fill:#274F9F;}
</style>
<title>logo-white</title>
<g>
	<path class="st0" d="M141.1,29.8l7.7,29.4l7.7-29.4h10.7v40.7h-8.2v-11l0.8-17l-8.1,28h-5.6l-8.1-28l0.8,17v11h-8.2V29.8H141.1z"/>
	<path class="st0" d="M185.2,48.1l6.1-18.3h8.9l-10.9,25.9v14.8h-8.3V55.7l-10.9-25.9h8.9L185.2,48.1z"/>
	<path class="st0" d="M244.9,65.9c-1.6,1.7-3.5,3-5.8,3.9c-2.3,0.9-4.8,1.3-7.6,1.3c-4.7,0-8.3-1.4-10.9-4.3
		c-2.6-2.9-3.9-7.1-4-12.7v-7.3c0-5.6,1.2-9.9,3.7-13c2.5-3,6-4.5,10.7-4.5c4.4,0,7.7,1.1,10,3.3c2.2,2.2,3.5,5.6,3.9,10.3h-8
		c-0.2-2.6-0.8-4.4-1.6-5.3c-0.9-0.9-2.2-1.4-4-1.4c-2.2,0-3.8,0.8-4.8,2.4c-1,1.6-1.5,4.2-1.6,7.7v7.4c0,3.7,0.6,6.4,1.7,8.1
		c1.1,1.7,2.9,2.5,5.5,2.5c1.6,0,2.9-0.3,3.9-1l0.7-0.5v-7.5h-5.8v-6.2h14V65.9z"/>
	<path class="st0" d="M270.1,62.1h-11.2l-2.2,8.3H248l12.7-40.7h7.5l12.8,40.7h-8.8L270.1,62.1z M260.7,55.3h7.6l-3.8-14.5
		L260.7,55.3z"/>
	<path class="st0" d="M297.2,55.6h-4.1v14.9h-8.2V29.8H298c4.1,0,7.3,1.1,9.5,3.2c2.2,2.1,3.4,5.2,3.4,9.1c0,5.4-2,9.2-5.9,11.4
		l7.1,16.7v0.4h-8.8L297.2,55.6z M293.1,48.8h4.7c1.6,0,2.9-0.5,3.7-1.6s1.2-2.5,1.2-4.4c0-4.1-1.6-6.1-4.8-6.1h-4.8V48.8z"/>
	<path class="st0" d="M336,62.1h-11.2l-2.2,8.3h-8.7l12.7-40.7h7.5L347,70.5h-8.8L336,62.1z M326.6,55.3h7.6l-3.8-14.5L326.6,55.3z"
		/>
	<path class="st0" d="M377.9,65.9c-1.6,1.7-3.5,3-5.8,3.9c-2.3,0.9-4.8,1.3-7.6,1.3c-4.7,0-8.3-1.4-10.9-4.3
		c-2.6-2.9-3.9-7.1-4-12.7v-7.3c0-5.6,1.2-9.9,3.7-13s6-4.5,10.7-4.5c4.4,0,7.7,1.1,10,3.3c2.2,2.2,3.5,5.6,3.9,10.3h-8
		c-0.2-2.6-0.8-4.4-1.6-5.3c-0.9-0.9-2.2-1.4-4-1.4c-2.2,0-3.8,0.8-4.8,2.4c-1,1.6-1.5,4.2-1.6,7.7v7.4c0,3.7,0.6,6.4,1.7,8.1
		c1.1,1.7,2.9,2.5,5.5,2.5c1.6,0,2.9-0.3,3.9-1l0.7-0.5v-7.5h-5.8v-6.2h14V65.9z"/>
	<path class="st0" d="M404.7,52.9h-12.8v10.8h15.2v6.8h-23.4V29.8H407v6.8h-15.1v9.6h12.8V52.9z"/>
</g>
<rect x="0" y="-0.6" class="st1" width="105" height="105"/>
<g>
	<g>
		<path class="st0" d="M93.8,52.6c-0.1-0.4-0.2-0.7-0.3-0.9c-0.4-1.2-1.7-1.8-2.8-1.4c-1.2,0.4-1.8,1.7-1.4,2.8
			c0.1,0.3,0.2,0.6,0.3,1c0.7,1.9,1.9,5.7,2.2,7.9c-1.2,0.5-4.1,0.9-7.2,1c-1-4.7-5.2-8.2-10.2-8.2c-1.2,0-2.2,1-2.2,2.2
			c0,1.2,1,2.2,2.2,2.2c3.3,0,6,2.7,6,6c0,3.3-2.7,6-6,6c-3.3,0-6-2.7-6-6c0-1.2-1-2.2-2.2-2.2H40.8c-1-4.7-5.2-8.2-10.2-8.2
			c-1.2,0-2.2,1-2.2,2.2c0,1.2,1,2.2,2.2,2.2c3.3,0,6,2.7,6,6c0,3.3-2.7,6-6,6c-3.3,0-6-2.7-6-6c0,0,0-1.1-0.6-1.6
			C23.5,63,22.4,63,22.4,63c-3.8-0.1-7.7-0.6-9.2-1.2c0,0,0,0,0,0c0.3-2.6,1.1-9.7,4-11.9c2.8-2.2,10.2-3.2,12.8-3.4
			c0.5,0,1-0.2,1.3-0.6c0.1-0.1,7.8-7.1,12.8-10.2c3.9-2.4,14.7-2.9,18.6-2.9c0,0,0,0,0,0c4-0.1,15.3,0.4,19.1,3.8
			c1.2,1.1,2.6,3.8,3.7,6.2H61.2c-1-3.3-4-5.7-7.7-5.7c-2.3,0-4.4,1-5.9,2.6v0.7c0,0.3,0.2,0.5,0.5,0.5h6c0.3,0,0.6,0.2,0.7,0.4
			l1.9,3.3c0.1,0.2,0.1,0.6,0,0.8l-1.9,3.3c-0.1,0.2-0.5,0.4-0.7,0.4h-6c-0.3,0-0.5,0.2-0.5,0.5v0.7c1.5,1.6,3.5,2.6,5.9,2.6
			c3.6,0,6.7-2.4,7.7-5.7h27.7c0.7,0,1.4-0.3,1.8-0.9c0.4-0.6,0.5-1.3,0.3-2c-0.3-0.8-2.9-8.3-6.1-11.1c-5.8-5.1-20.4-4.9-22.2-4.9
			c-1.7,0-15.2,0.2-20.8,3.6c-4.6,2.8-11,8.4-13,10.2c-2.6,0.3-10.6,1.3-14.5,4.3c-4.3,3.4-5.2,11.2-5.7,14.9c0,0.3-0.1,0.6-0.1,0.8
			c-0.1,0.9,0.2,1.8,0.8,2.5c0.8,0.9,2.3,2,7.7,2.6c1.2,0.1,2.3,0.2,3.2,0.3c1,4.7,5.2,8.3,10.2,8.3c5,0,9.2-3.5,10.2-8.2h23.5
			c1,4.7,5.2,8.2,10.2,8.2c5,0,9.2-3.5,10.2-8.2c1.1,0,2.5-0.1,4-0.3c2.3-0.3,7.7-0.9,7.7-4.5C96.3,60.2,95.1,56.3,93.8,52.6z"/>
	</g>
	<g>
		<path class="st0" d="M30.6,68.6c1.9,0,3.4-1.5,3.4-3.4c0-1.9-1.5-3.4-3.4-3.4c-1.9,0-3.4,1.5-3.4,3.4
			C27.2,67.1,28.7,68.6,30.6,68.6z"/>
	</g>
	<g>
		<path class="st0" d="M74.4,68.6c1.9,0,3.4-1.5,3.4-3.4c0-1.9-1.5-3.4-3.4-3.4c-1.9,0-3.4,1.5-3.4,3.4
			C71.1,67.1,72.6,68.6,74.4,68.6z"/>
	</g>
</g>
</svg>
