<?xml version="1.0" encoding="utf-8"?>
<!-- Generator: Adobe Illustrator 23.0.1, SVG Export Plug-In . SVG Version: 6.00 Build 0)  -->
<svg version="1.1" id="Layer_1" xmlns="http://www.w3.org/2000/svg" xmlns:xlink="http://www.w3.org/1999/xlink" x="0px" y="0px"
	 viewBox="0 0 80.9 104.6" style="enable-background:new 0 0 80.9 104.6;" xml:space="preserve">
<style type="text/css">
	.st0{fill:#274F9F;}
</style>
<title>Artboard 1</title>
<g>
	<g>
		<path class="st0" d="M72.8,52.5c-0.1-0.3-0.2-0.5-0.2-0.7c-0.3-0.9-1.3-1.4-2.2-1.1c-0.9,0.3-1.4,1.3-1.1,2.2
			c0.1,0.2,0.2,0.5,0.3,0.8c0.5,1.5,1.5,4.5,1.7,6.1c-0.9,0.4-3.2,0.7-5.6,0.8c-0.8-3.6-4.1-6.4-8-6.4c-1,0-1.8,0.8-1.8,1.8
			c0,1,0.8,1.8,1.8,1.8c2.6,0,4.7,2.1,4.7,4.7c0,2.6-2.1,4.7-4.7,4.7c-2.6,0-4.7-2.1-4.7-4.7c0-1-0.8-1.8-1.8-1.8H31.3
			c-0.8-3.7-4.1-6.4-8-6.4c-1,0-1.8,0.8-1.8,1.8c0,1,0.8,1.8,1.8,1.8c2.6,0,4.7,2.1,4.7,4.7c0,2.6-2.1,4.7-4.7,4.7
			c-2.6,0-4.7-2.1-4.7-4.7c0,0,0-0.8-0.4-1.3c-0.4-0.4-1.3-0.5-1.3-0.5c-2.9-0.1-6-0.5-7.2-0.9c0,0,0,0,0,0c0.2-2.1,0.9-7.6,3.1-9.3
			c2.2-1.7,8-2.5,10-2.7c0.4,0,0.8-0.2,1-0.5c0.1-0.1,6.1-5.6,10-7.9c3-1.8,11.5-2.3,14.5-2.3c0,0,0,0,0,0c3.1-0.1,11.9,0.3,15,3
			c1,0.8,2,2.9,2.9,4.9H47.2c-0.8-2.6-3.2-4.5-6-4.5c-1.8,0-3.4,0.8-4.6,2v0.6c0,0.2,0.2,0.4,0.4,0.4h4.7c0.2,0,0.5,0.1,0.6,0.3
			l1.5,2.6c0.1,0.2,0.1,0.5,0,0.7l-1.5,2.6c-0.1,0.2-0.4,0.3-0.6,0.3H37c-0.2,0-0.4,0.2-0.4,0.4v0.6c1.1,1.2,2.8,2,4.6,2
			c2.8,0,5.2-1.9,6-4.5h21.6c0.6,0,1.1-0.3,1.4-0.7c0.3-0.5,0.4-1,0.2-1.6c-0.2-0.7-2.2-6.5-4.8-8.7c-4.6-4-16-3.9-17.3-3.8
			c-1.3,0-11.9,0.2-16.3,2.8c-3.6,2.2-8.6,6.6-10.1,7.9c-2.1,0.2-8.3,1-11.3,3.4c-3.4,2.6-4.1,8.7-4.4,11.7c0,0.2-0.1,0.5-0.1,0.6
			c-0.1,0.7,0.1,1.4,0.6,1.9c0.6,0.7,1.8,1.5,6,2c0.9,0.1,1.8,0.2,2.5,0.2c0.8,3.7,4.1,6.5,8,6.5c3.9,0,7.2-2.7,8-6.4h18.3
			c0.8,3.7,4.1,6.4,8,6.4c3.9,0,7.2-2.8,8-6.4c0.9,0,2-0.1,3.1-0.2c1.8-0.2,6-0.7,6-3.5C74.7,58.4,73.7,55.4,72.8,52.5z"/>
	</g>
	<g>
		<path class="st0" d="M23.3,65c1.5,0,2.6-1.2,2.6-2.7c0-1.5-1.2-2.6-2.6-2.6c-1.5,0-2.7,1.2-2.7,2.6C20.7,63.8,21.8,65,23.3,65z"/>
	</g>
	<g>
		<path class="st0" d="M57.6,65c1.5,0,2.7-1.2,2.7-2.7c0-1.5-1.2-2.6-2.7-2.6c-1.5,0-2.6,1.2-2.6,2.6C54.9,63.8,56.1,65,57.6,65z"/>
	</g>
</g>
</svg>
